# Blender 4.3.0
# www.blender.org
mtllib Milk.mtl
o Cube
v -0.103341 7.048229 -2.202831
v -0.103341 0.556565 -2.202831
v -0.103341 7.048232 1.049968
v -0.103341 0.556565 1.049968
v -2.691893 7.048229 -2.202831
v -2.691893 0.556565 -2.202831
v -2.691893 7.048232 1.049968
v -2.691893 0.556565 1.049968
v -1.272334 8.788625 -0.660102
v -1.365495 8.784197 -0.660792
v -1.271335 8.785569 -0.662314
v -1.351008 8.785599 -0.662523
v -1.308677 8.876909 -2.202832
v -1.308975 8.875856 1.049967
v -1.308478 8.876979 -2.202832
v -1.308715 8.875666 1.049967
v -1.309436 9.081118 -2.202754
v -1.313039 9.080065 1.050045
v -1.309964 9.080804 -2.202754
v -1.316579 9.080256 1.050045
v -0.111544 7.030023 -2.194169
v -0.110813 0.575305 -2.193441
v -0.111497 7.029674 1.041424
v -0.110813 0.575305 1.040578
v -2.683809 7.029750 -2.194137
v -2.684421 0.575305 -2.193441
v -2.683853 7.029428 1.041386
v -2.684421 0.575305 1.040578
v -1.272328 8.760361 -0.652106
v -1.365489 8.755934 -0.652795
v -1.271335 8.756636 -0.669685
v -1.351008 8.756664 -0.669894
v -1.298844 8.862529 -2.210573
v -1.299883 8.862544 1.059427
v -1.317950 8.862688 -2.211291
v -1.318911 8.860260 1.056353
v -1.301754 9.101192 -2.211131
v -1.305816 9.098955 1.059665
v -1.317270 9.097927 -2.213079
v -1.324448 9.098639 1.059094
vn -0.0000 -0.0000 1.0000
vn -1.0000 -0.0000 -0.0000
vn -0.0000 -1.0000 -0.0000
vn 1.0000 -0.0000 -0.0000
vn -0.0000 -0.0000 -1.0000
vn -0.0009 0.6637 -0.7480
vn -0.0000 0.7020 0.7122
vn -0.7975 0.6033 0.0001
vn 0.8349 0.5504 0.0001
vn 0.9997 0.0229 0.0011
vn 0.0295 -0.9996 -0.0002
vn 0.0001 0.0004 -1.0000
vn -0.9999 -0.0118 -0.0006
vn 0.0009 -0.0004 1.0000
vn -0.0000 0.0001 -1.0000
vn 1.0000 -0.0001 -0.0000
vn -0.0000 1.0000 -0.0000
vn -1.0000 -0.0001 -0.0000
vn -0.0000 0.0001 1.0000
vn 0.0010 -0.6657 0.7462
vn 0.0001 -0.7038 -0.7104
vn 0.7980 -0.6027 0.0001
vn -0.8350 -0.5502 -0.0004
vn -0.9999 -0.0103 -0.0012
vn -0.1043 0.9945 0.0001
vn -0.0957 -0.0086 0.9954
vn 0.9998 0.0186 0.0008
vn 0.0772 -0.0046 -0.9970
vn -0.0201 0.2722 0.9620
vn -0.7973 0.0758 0.5988
vn 0.8258 0.0555 0.5612
vn 0.0026 0.2468 -0.9691
vn 0.8427 0.0353 -0.5373
vn -0.8137 0.0563 -0.5785
vn -0.0250 0.0140 0.9996
vn 0.0189 -0.0187 -0.9996
vn -0.0013 -0.0055 -1.0000
vn -0.0494 -0.0367 0.9981
vn 0.2030 -0.4790 -0.8540
vn -0.0390 -0.4919 0.8698
vt 0.375000 0.750000
vt 0.625000 0.750000
vt 0.625000 1.000000
vt 0.375000 1.000000
vt 0.375000 0.000000
vt 0.625000 0.000000
vt 0.625000 0.250000
vt 0.375000 0.250000
vt 0.125000 0.500000
vt 0.375000 0.500000
vt 0.125000 0.750000
vt 0.625000 0.500000
vt 0.000000 0.000000
s 0
usemtl Material
f 4/1/1 3/2/1 7/3/1 8/4/1
f 8/5/2 7/6/2 5/7/2 6/8/2
f 6/9/3 2/10/3 4/1/3 8/11/3
f 2/10/4 1/12/4 3/2/4 4/1/4
f 6/8/5 5/7/5 1/12/5 2/10/5
f 1/12/6 5/7/6 10/7/6 9/12/6
f 7/3/7 3/2/7 11/2/7 12/3/7
f 5/7/8 7/6/8 14/6/8 13/7/8
f 3/2/9 1/12/9 15/12/9 16/2/9
f 16/2/10 15/12/10 19/12/10 20/2/10
f 18/6/11 20/2/11 19/12/11 17/7/11
f 14/13/12 16/13/12 20/13/12 18/13/12
f 13/7/13 14/6/13 18/6/13 17/7/13
f 15/13/14 13/13/14 17/13/14 19/13/14
f 24/1/15 28/4/15 27/3/15 23/2/15
f 28/5/16 26/8/16 25/7/16 27/6/16
f 26/9/17 28/11/17 24/1/17 22/10/17
f 22/10/18 24/1/18 23/2/18 21/12/18
f 26/8/19 22/10/19 21/12/19 25/7/19
f 21/12/20 29/12/20 30/7/20 25/7/20
f 27/3/21 32/3/21 31/2/21 23/2/21
f 25/7/22 33/7/22 34/6/22 27/6/22
f 23/2/23 36/2/23 35/12/23 21/12/23
f 36/2/24 40/2/24 39/12/24 35/12/24
f 38/6/25 37/7/25 39/12/25 40/2/25
f 34/13/26 38/13/26 40/13/26 36/13/26
f 33/7/27 37/7/27 38/6/27 34/6/27
f 35/13/28 39/13/28 37/13/28 33/13/28
f 9/12/29 10/7/29 30/7/29 29/12/29
f 10/7/30 5/7/30 25/7/30 30/7/30
f 1/12/31 9/12/31 29/12/31 21/12/31
f 12/3/32 11/2/32 31/2/32 32/3/32
f 11/2/33 3/2/33 23/2/33 31/2/33
f 7/3/34 12/3/34 32/3/34 27/3/34
f 14/6/35 7/6/35 27/6/35 34/6/35
f 5/7/36 13/7/36 33/7/36 25/7/36
f 15/12/37 1/12/37 21/12/37 35/12/37
f 3/2/38 16/2/38 36/2/38 23/2/38
f 16/13/39 14/13/39 34/13/39 36/13/39
f 13/13/40 15/13/40 35/13/40 33/13/40
o Cylinder
v -1.731838 8.132910 -1.011186
v -2.031496 8.353273 -1.013760
v -1.687254 8.194170 -0.956972
v -1.986911 8.414534 -0.959545
v -1.649678 8.246051 -0.889728
v -1.949335 8.466415 -0.892301
v -1.620556 8.286560 -0.812040
v -1.920213 8.506925 -0.814613
v -1.601005 8.314140 -0.726892
v -1.900662 8.534504 -0.729465
v -1.591778 8.327731 -0.637558
v -1.891435 8.548095 -0.640131
v -1.593228 8.326810 -0.547469
v -1.892885 8.547174 -0.550043
v -1.605301 8.311413 -0.460089
v -1.904958 8.531777 -0.462663
v -1.627533 8.282132 -0.378776
v -1.927190 8.502496 -0.381349
v -1.659068 8.240091 -0.306653
v -1.958725 8.460456 -0.309226
v -1.698695 8.186908 -0.246492
v -1.998352 8.407272 -0.249065
v -1.744892 8.124624 -0.200607
v -2.044549 8.344989 -0.203180
v -1.795882 8.055635 -0.170759
v -2.095539 8.275999 -0.173332
v -1.849707 7.982591 -0.158096
v -2.149364 8.202954 -0.160669
v -1.904297 7.908298 -0.163104
v -2.203955 8.128662 -0.165678
v -1.957556 7.835613 -0.185592
v -2.257213 8.055977 -0.188165
v -2.007436 7.767328 -0.224695
v -2.307093 7.987692 -0.227268
v -2.052021 7.706068 -0.278910
v -2.351678 7.926432 -0.281483
v -2.089597 7.654186 -0.346154
v -2.389254 7.874550 -0.348727
v -2.118719 7.613677 -0.423842
v -2.418376 7.834042 -0.426415
v -2.138270 7.586097 -0.508989
v -2.437927 7.806462 -0.511563
v -2.147497 7.572507 -0.598324
v -2.447154 7.792871 -0.600897
v -2.146046 7.573428 -0.688412
v -2.445704 7.793792 -0.690985
v -2.133973 7.588824 -0.775792
v -2.433630 7.809188 -0.778365
v -2.111742 7.618105 -0.857106
v -2.411399 7.838470 -0.859679
v -2.080207 7.660146 -0.929229
v -2.379864 7.880510 -0.931802
v -2.040580 7.713329 -0.989389
v -2.340237 7.933693 -0.991962
v -1.994383 7.775613 -1.035275
v -2.294040 7.995977 -1.037848
v -1.943393 7.844603 -1.065123
v -2.243050 8.064966 -1.067696
v -1.889568 7.917647 -1.077786
v -2.189225 8.138011 -1.080359
v -1.834977 7.991940 -1.072777
v -2.134634 8.212303 -1.075350
v -1.781718 8.064625 -1.050289
v -2.081376 8.284988 -1.052862
v -1.733869 8.132335 -1.008333
v -2.031471 8.351188 -1.010889
v -1.689609 8.193149 -0.954513
v -1.987211 8.412002 -0.957068
v -1.652307 8.244653 -0.887758
v -1.949909 8.463506 -0.890314
v -1.623396 8.284867 -0.810636
v -1.920998 8.503720 -0.813191
v -1.603988 8.312246 -0.726108
v -1.901590 8.531099 -0.728664
v -1.594828 8.325738 -0.637424
v -1.892430 8.544591 -0.639979
v -1.596268 8.324823 -0.547991
v -1.893870 8.543676 -0.550547
v -1.608253 8.309539 -0.461247
v -1.905855 8.528392 -0.463803
v -1.630322 8.280471 -0.380525
v -1.927925 8.499324 -0.383081
v -1.661628 8.238737 -0.308927
v -1.959230 8.457590 -0.311483
v -1.700967 8.185940 -0.249205
v -1.998569 8.404793 -0.251760
v -1.746827 8.124110 -0.203653
v -2.044429 8.342963 -0.206209
v -1.797446 8.055622 -0.174022
v -2.095049 8.274476 -0.176578
v -1.850879 7.983110 -0.161452
v -2.148482 8.201962 -0.164007
v -1.905073 7.909358 -0.166424
v -2.202675 8.128211 -0.168979
v -1.957944 7.837202 -0.188748
v -2.255546 8.056055 -0.191304
v -2.007461 7.769414 -0.227566
v -2.305063 7.988267 -0.230122
v -2.051721 7.708600 -0.281386
v -2.349323 7.927453 -0.283942
v -2.089023 7.657096 -0.348141
v -2.386625 7.875949 -0.350696
v -2.117934 7.616881 -0.425264
v -2.415536 7.835735 -0.427819
v -2.137342 7.589502 -0.509791
v -2.434944 7.808356 -0.512347
v -2.146502 7.576011 -0.598475
v -2.444104 7.794864 -0.601031
v -2.145062 7.576925 -0.687908
v -2.442664 7.795778 -0.690463
v -2.133077 7.592210 -0.774652
v -2.430679 7.811063 -0.777207
v -2.111007 7.621278 -0.855374
v -2.408610 7.840131 -0.857930
v -2.079702 7.663012 -0.926972
v -2.377304 7.881865 -0.929528
v -2.040363 7.715808 -0.986694
v -2.337965 7.934661 -0.989250
v -1.994503 7.777638 -1.032246
v -2.292105 7.996492 -1.034802
v -1.943883 7.846126 -1.061877
v -2.241486 8.064980 -1.064432
v -1.890450 7.918639 -1.074447
v -2.188053 8.137492 -1.077003
v -1.836257 7.992391 -1.069475
v -2.133859 8.211244 -1.072031
v -1.783386 8.064547 -1.047151
v -2.080988 8.283400 -1.049707
vn 0.3493 0.4655 -0.8132
vn 0.4328 0.5805 -0.6897
vn 0.5015 0.6757 -0.5403
vn 0.5527 0.7473 -0.3689
vn 0.5837 0.7916 -0.1807
vn 0.5922 0.8056 0.0178
vn 0.5769 0.7871 0.2184
vn 0.5375 0.7358 0.4119
vn 0.4755 0.6535 0.5889
vn 0.3939 0.5443 0.7407
vn 0.2969 0.4138 0.8606
vn 0.1894 0.2686 0.9444
vn 0.0764 0.1154 0.9904
vn -0.0377 -0.0396 0.9985
vn -0.1489 -0.1911 0.9702
vn -0.2537 -0.3344 0.9076
vn -0.3493 -0.4655 0.8132
vn -0.4328 -0.5805 0.6897
vn -0.5015 -0.6757 0.5403
vn -0.5527 -0.7473 0.3689
vn -0.5837 -0.7916 0.1807
vn -0.5922 -0.8056 -0.0178
vn -0.5769 -0.7871 -0.2184
vn -0.5375 -0.7358 -0.4119
vn -0.4755 -0.6535 -0.5889
vn -0.3939 -0.5443 -0.7407
vn -0.2969 -0.4138 -0.8606
vn -0.1894 -0.2686 -0.9444
vn -0.0764 -0.1154 -0.9904
vn 0.0377 0.0396 -0.9985
vn -0.8056 0.5924 -0.0069
vn 0.1489 0.1911 -0.9702
vn 0.2537 0.3344 -0.9076
vn 0.8056 -0.5924 0.0069
vt 1.000000 0.500000
vt 1.000000 1.000000
vt 0.968750 1.000000
vt 0.968750 0.500000
vt 0.937500 1.000000
vt 0.937500 0.500000
vt 0.906250 1.000000
vt 0.906250 0.500000
vt 0.875000 1.000000
vt 0.875000 0.500000
vt 0.843750 1.000000
vt 0.843750 0.500000
vt 0.812500 1.000000
vt 0.812500 0.500000
vt 0.781250 1.000000
vt 0.781250 0.500000
vt 0.750000 1.000000
vt 0.750000 0.500000
vt 0.718750 1.000000
vt 0.718750 0.500000
vt 0.687500 1.000000
vt 0.687500 0.500000
vt 0.656250 1.000000
vt 0.656250 0.500000
vt 0.625000 1.000000
vt 0.625000 0.500000
vt 0.593750 1.000000
vt 0.593750 0.500000
vt 0.562500 1.000000
vt 0.562500 0.500000
vt 0.531250 1.000000
vt 0.531250 0.500000
vt 0.500000 1.000000
vt 0.500000 0.500000
vt 0.468750 1.000000
vt 0.468750 0.500000
vt 0.437500 1.000000
vt 0.437500 0.500000
vt 0.406250 1.000000
vt 0.406250 0.500000
vt 0.375000 1.000000
vt 0.375000 0.500000
vt 0.343750 1.000000
vt 0.343750 0.500000
vt 0.312500 1.000000
vt 0.312500 0.500000
vt 0.281250 1.000000
vt 0.281250 0.500000
vt 0.250000 1.000000
vt 0.250000 0.500000
vt 0.218750 1.000000
vt 0.218750 0.500000
vt 0.187500 1.000000
vt 0.187500 0.500000
vt 0.156250 1.000000
vt 0.156250 0.500000
vt 0.125000 1.000000
vt 0.125000 0.500000
vt 0.093750 1.000000
vt 0.093750 0.500000
vt 0.062500 1.000000
vt 0.062500 0.500000
vt 0.296822 0.485388
vt 0.250000 0.490000
vt 0.203178 0.485388
vt 0.158156 0.471731
vt 0.116663 0.449553
vt 0.080294 0.419706
vt 0.050447 0.383337
vt 0.028269 0.341844
vt 0.014612 0.296822
vt 0.010000 0.250000
vt 0.014612 0.203178
vt 0.028269 0.158156
vt 0.050447 0.116663
vt 0.080294 0.080294
vt 0.116663 0.050447
vt 0.158156 0.028269
vt 0.203178 0.014612
vt 0.250000 0.010000
vt 0.296822 0.014612
vt 0.341844 0.028269
vt 0.383337 0.050447
vt 0.419706 0.080294
vt 0.449553 0.116663
vt 0.471731 0.158156
vt 0.485388 0.203178
vt 0.490000 0.250000
vt 0.485388 0.296822
vt 0.471731 0.341844
vt 0.449553 0.383337
vt 0.419706 0.419706
vt 0.383337 0.449553
vt 0.341844 0.471731
vt 0.031250 1.000000
vt 0.031250 0.500000
vt 0.000000 1.000000
vt 0.000000 0.500000
vt 0.750000 0.490000
vt 0.796822 0.485388
vt 0.841844 0.471731
vt 0.883337 0.449553
vt 0.919706 0.419706
vt 0.949553 0.383337
vt 0.971731 0.341844
vt 0.985388 0.296822
vt 0.990000 0.250000
vt 0.985388 0.203178
vt 0.971731 0.158156
vt 0.949553 0.116663
vt 0.919706 0.080294
vt 0.883337 0.050447
vt 0.841844 0.028269
vt 0.796822 0.014612
vt 0.750000 0.010000
vt 0.703178 0.014612
vt 0.658156 0.028269
vt 0.616663 0.050447
vt 0.580294 0.080294
vt 0.550447 0.116663
vt 0.528269 0.158156
vt 0.514612 0.203178
vt 0.510000 0.250000
vt 0.514612 0.296822
vt 0.528269 0.341844
vt 0.550447 0.383337
vt 0.580294 0.419706
vt 0.616663 0.449553
vt 0.658156 0.471731
vt 0.703178 0.485388
s 0
f 41/14/41 42/15/41 44/16/41 43/17/41
f 43/17/42 44/16/42 46/18/42 45/19/42
f 45/19/43 46/18/43 48/20/43 47/21/43
f 47/21/44 48/20/44 50/22/44 49/23/44
f 49/23/45 50/22/45 52/24/45 51/25/45
f 51/25/46 52/24/46 54/26/46 53/27/46
f 53/27/47 54/26/47 56/28/47 55/29/47
f 55/29/48 56/28/48 58/30/48 57/31/48
f 57/31/49 58/30/49 60/32/49 59/33/49
f 59/33/50 60/32/50 62/34/50 61/35/50
f 61/35/51 62/34/51 64/36/51 63/37/51
f 63/37/52 64/36/52 66/38/52 65/39/52
f 65/39/53 66/38/53 68/40/53 67/41/53
f 67/41/54 68/40/54 70/42/54 69/43/54
f 69/43/55 70/42/55 72/44/55 71/45/55
f 71/45/56 72/44/56 74/46/56 73/47/56
f 73/47/57 74/46/57 76/48/57 75/49/57
f 75/49/58 76/48/58 78/50/58 77/51/58
f 77/51/59 78/50/59 80/52/59 79/53/59
f 79/53/60 80/52/60 82/54/60 81/55/60
f 81/55/61 82/54/61 84/56/61 83/57/61
f 83/57/62 84/56/62 86/58/62 85/59/62
f 85/59/63 86/58/63 88/60/63 87/61/63
f 87/61/64 88/60/64 90/62/64 89/63/64
f 89/63/65 90/62/65 92/64/65 91/65/65
f 91/65/66 92/64/66 94/66/66 93/67/66
f 93/67/67 94/66/67 96/68/67 95/69/67
f 95/69/68 96/68/68 98/70/68 97/71/68
f 97/71/69 98/70/69 100/72/69 99/73/69
f 99/73/70 100/72/70 102/74/70 101/75/70
f 44/76/71 42/77/71 104/78/71 102/79/71 100/80/71 98/81/71 96/82/71 94/83/71 92/84/71 90/85/71 88/86/71 86/87/71 84/88/71 82/89/71 80/90/71 78/91/71 76/92/71 74/93/71 72/94/71 70/95/71 68/96/71 66/97/71 64/98/71 62/99/71 60/100/71 58/101/71 56/102/71 54/103/71 52/104/71 50/105/71 48/106/71 46/107/71
f 101/75/72 102/74/72 104/108/72 103/109/72
f 103/109/73 104/108/73 42/110/73 41/111/73
f 41/112/74 43/113/74 45/114/74 47/115/74 49/116/74 51/117/74 53/118/74 55/119/74 57/120/74 59/121/74 61/122/74 63/123/74 65/124/74 67/125/74 69/126/74 71/127/74 73/128/74 75/129/74 77/130/74 79/131/74 81/132/74 83/133/74 85/134/74 87/135/74 89/136/74 91/137/74 93/138/74 95/139/74 97/140/74 99/141/74 101/142/74 103/143/74
f 105/14/57 107/17/57 108/16/57 106/15/57
f 107/17/58 109/19/58 110/18/58 108/16/58
f 109/19/59 111/21/59 112/20/59 110/18/59
f 111/21/60 113/23/60 114/22/60 112/20/60
f 113/23/61 115/25/61 116/24/61 114/22/61
f 115/25/62 117/27/62 118/26/62 116/24/62
f 117/27/63 119/29/63 120/28/63 118/26/63
f 119/29/64 121/31/64 122/30/64 120/28/64
f 121/31/65 123/33/65 124/32/65 122/30/65
f 123/33/66 125/35/66 126/34/66 124/32/66
f 125/35/67 127/37/67 128/36/67 126/34/67
f 127/37/68 129/39/68 130/38/68 128/36/68
f 129/39/69 131/41/69 132/40/69 130/38/69
f 131/41/70 133/43/70 134/42/70 132/40/70
f 133/43/72 135/45/72 136/44/72 134/42/72
f 135/45/73 137/47/73 138/46/73 136/44/73
f 137/47/41 139/49/41 140/48/41 138/46/41
f 139/49/42 141/51/42 142/50/42 140/48/42
f 141/51/43 143/53/43 144/52/43 142/50/43
f 143/53/44 145/55/44 146/54/44 144/52/44
f 145/55/45 147/57/45 148/56/45 146/54/45
f 147/57/46 149/59/46 150/58/46 148/56/46
f 149/59/47 151/61/47 152/60/47 150/58/47
f 151/61/48 153/63/48 154/62/48 152/60/48
f 153/63/49 155/65/49 156/64/49 154/62/49
f 155/65/50 157/67/50 158/66/50 156/64/50
f 157/67/51 159/69/51 160/68/51 158/66/51
f 159/69/52 161/71/52 162/70/52 160/68/52
f 161/71/53 163/73/53 164/72/53 162/70/53
f 163/73/54 165/75/54 166/74/54 164/72/54
f 108/76/74 110/107/74 112/106/74 114/105/74 116/104/74 118/103/74 120/102/74 122/101/74 124/100/74 126/99/74 128/98/74 130/97/74 132/96/74 134/95/74 136/94/74 138/93/74 140/92/74 142/91/74 144/90/74 146/89/74 148/88/74 150/87/74 152/86/74 154/85/74 156/84/74 158/83/74 160/82/74 162/81/74 164/80/74 166/79/74 168/78/74 106/77/74
f 165/75/55 167/109/55 168/108/55 166/74/55
f 167/109/56 105/111/56 106/110/56 168/108/56
f 105/112/71 167/143/71 165/142/71 163/141/71 161/140/71 159/139/71 157/138/71 155/137/71 153/136/71 151/135/71 149/134/71 147/133/71 145/132/71 143/131/71 141/130/71 139/129/71 137/128/71 135/127/71 133/126/71 131/125/71 129/124/71 127/123/71 125/122/71 123/121/71 121/120/71 119/119/71 117/118/71 115/117/71 113/116/71 111/115/71 109/114/71 107/113/71
o Milk
v -2.715883 2.527058 -1.166016
v -2.715883 2.850058 -0.869016
v -2.715883 2.850058 -0.991016
v -2.715883 2.538058 -1.278016
v -2.715883 2.850058 -1.278016
v -2.715883 2.850058 -1.376016
v -2.715883 2.168058 -1.376016
v -2.715883 2.168058 -1.278016
v -2.715883 2.505058 -1.278016
v -2.715883 2.168058 -0.931016
v -2.715883 2.168058 -0.796016
v -2.715883 3.850058 -1.279016
v -2.715883 3.850058 -1.377016
v -2.715883 3.168058 -1.377016
v -2.715883 3.168058 -0.971016
v -2.715883 3.256058 -0.971016
v -2.715883 3.256058 -1.279016
v -2.715883 4.850058 -1.277016
v -2.715883 4.850058 -1.375016
v -2.715883 4.168058 -1.375016
v -2.715883 4.168058 -1.277016
v -2.715883 5.850058 -0.742016
v -2.715883 5.850058 -0.833016
v -2.715883 5.570058 -1.060016
v -2.715883 5.850058 -1.286016
v -2.715883 5.850058 -1.378016
v -2.715883 5.168058 -1.378016
v -2.715883 5.168058 -1.280016
v -2.715883 5.699058 -1.280016
v -2.715883 5.699058 -1.278016
v -2.715883 5.435058 -1.068016
v -2.715883 5.435058 -1.052016
v -2.715883 5.699058 -0.842016
v -2.715883 5.699058 -0.840016
v -2.715883 5.168058 -0.840016
v -2.715883 5.168058 -0.742016
v -2.685883 2.527058 -1.166016
v -2.685883 2.850058 -0.869016
v -2.685883 2.850058 -0.991016
v -2.685883 2.538058 -1.278016
v -2.685883 2.850058 -1.278016
v -2.685883 2.850058 -1.376016
v -2.685883 2.168058 -1.376016
v -2.685883 2.168058 -1.278016
v -2.685883 2.505058 -1.278016
v -2.685883 2.168058 -0.931016
v -2.685883 2.168058 -0.796016
v -2.685883 3.850058 -1.279016
v -2.685883 3.850058 -1.377016
v -2.685883 3.168058 -1.377016
v -2.685883 3.168058 -0.971016
v -2.685883 3.256058 -0.971016
v -2.685883 3.256058 -1.279016
v -2.685883 4.850058 -1.277016
v -2.685883 4.850058 -1.375016
v -2.685883 4.168058 -1.375016
v -2.685883 4.168058 -1.277016
v -2.685883 5.850058 -0.742016
v -2.685883 5.850058 -0.833016
v -2.685883 5.570058 -1.060016
v -2.685883 5.850058 -1.286016
v -2.685883 5.850058 -1.378016
v -2.685883 5.168058 -1.378016
v -2.685883 5.168058 -1.280016
v -2.685883 5.699058 -1.280016
v -2.685883 5.699058 -1.278016
v -2.685883 5.435058 -1.068016
v -2.685883 5.435058 -1.052016
v -2.685883 5.699058 -0.842016
v -2.685883 5.699058 -0.840016
v -2.685883 5.168058 -0.840016
v -2.685883 5.168058 -0.742016
vn -1.0000 -0.0000 -0.0000
vn 1.0000 -0.0000 -0.0000
vn -0.0000 -0.0000 -1.0000
vn -0.0000 1.0000 -0.0000
vn -0.0000 -0.0000 1.0000
vn -0.0000 0.6770 -0.7360
vn -0.0000 -0.6769 0.7361
vn -0.0000 0.7177 0.6964
vn -0.0000 -1.0000 -0.0000
vn -0.0000 -0.7174 -0.6967
vn -0.0000 0.6281 0.7782
vn -0.0000 0.6298 -0.7768
vn -0.0000 -0.6225 -0.7826
vn -0.0000 -0.6225 0.7826
vt 0.400000 0.000000
vt 0.600000 0.000000
vt 0.800000 0.000000
vt 1.000000 0.000000
vt 0.000000 0.000000
vt 0.200000 0.000000
vt 0.071429 0.000000
vt 0.142857 0.000000
vt 0.214286 0.000000
vt 0.285714 0.000000
vt 0.357143 0.000000
vt 0.428571 0.000000
vt 0.500000 0.000000
vt 0.571429 0.000000
vt 0.642857 0.000000
vt 0.714286 0.000000
vt 0.785714 0.000000
vt 0.857143 0.000000
vt 0.928571 0.000000
vt 0.666667 0.000000
vt 0.333333 0.000000
vt 0.100000 0.000000
vt 0.300000 0.000000
vt 0.700000 0.000000
vt 0.900000 0.000000
s 0
f 182/144/75 183/145/75 184/146/75 185/147/75 180/148/75 181/149/75
f 190/148/75 191/150/75 192/151/75 193/152/75 194/153/75 195/154/75 196/155/75 197/156/75 198/157/75 199/158/75 200/159/75 201/160/75 202/161/75 203/162/75 204/147/75
f 188/163/75 189/147/75 186/148/75 187/164/75
f 169/148/75 170/165/75 171/149/75 172/166/75 173/144/75 174/156/75 175/145/75 176/167/75 177/146/75 178/168/75 179/147/75
f 218/144/76 217/149/76 216/148/76 221/147/76 220/146/76 219/145/76
f 226/148/76 240/147/76 239/162/76 238/161/76 237/160/76 236/159/76 235/158/76 234/157/76 233/156/76 232/155/76 231/154/76 230/153/76 229/152/76 228/151/76 227/150/76
f 224/163/76 223/164/76 222/148/76 225/147/76
f 205/148/76 215/147/76 214/168/76 213/146/76 212/167/76 211/145/76 210/156/76 209/144/76 208/166/76 207/149/76 206/165/76
f 175/145/77 174/156/77 210/156/77 211/145/77
f 174/156/78 173/144/78 209/144/78 210/156/78
f 173/144/79 172/166/79 208/166/79 209/144/79
f 172/166/80 171/149/80 207/149/80 208/166/80
f 171/149/78 170/165/78 206/165/78 207/149/78
f 170/165/81 169/148/81 205/148/81 206/165/81
f 169/148/82 179/147/82 215/147/82 205/148/82
f 176/167/83 175/145/83 211/145/83 212/167/83
f 177/146/79 176/167/79 212/167/79 213/146/79
f 178/168/84 177/146/84 213/146/84 214/168/84
f 179/147/83 178/168/83 214/168/83 215/147/83
f 182/144/77 181/149/77 217/149/77 218/144/77
f 181/149/78 180/148/78 216/148/78 217/149/78
f 180/148/79 185/147/79 221/147/79 216/148/79
f 185/147/78 184/146/78 220/146/78 221/147/78
f 183/145/83 182/144/83 218/144/83 219/145/83
f 184/146/79 183/145/79 219/145/79 220/146/79
f 188/163/77 187/164/77 223/164/77 224/163/77
f 187/164/78 186/148/78 222/148/78 223/164/78
f 189/147/83 188/163/83 224/163/83 225/147/83
f 186/148/79 189/147/79 225/147/79 222/148/79
f 195/154/77 194/153/77 230/153/77 231/154/77
f 194/153/78 193/152/78 229/152/78 230/153/78
f 198/157/83 197/156/83 233/156/83 234/157/83
f 193/152/85 192/151/85 228/151/85 229/152/85
f 192/151/86 191/150/86 227/150/86 228/151/86
f 191/150/78 190/148/78 226/148/78 227/150/78
f 202/161/83 201/160/83 237/160/83 238/161/83
f 190/148/79 204/147/79 240/147/79 226/148/79
f 196/155/83 195/154/83 231/154/83 232/155/83
f 197/156/79 196/155/79 232/155/79 233/156/79
f 199/158/87 198/157/87 234/157/87 235/158/87
f 201/160/88 200/159/88 236/159/88 237/160/88
f 203/162/77 202/161/77 238/161/77 239/162/77
f 204/147/83 203/162/83 239/162/83 240/147/83
f 200/159/83 199/158/83 235/158/83 236/159/83
